<?xml version="1.0" encoding="UTF-8" standalone="no"?>
<svg width="236px" height="236px" viewBox="0 0 236 236" version="1.1" xmlns="http://www.w3.org/2000/svg" xmlns:xlink="http://www.w3.org/1999/xlink" xmlns:sketch="http://www.bohemiancoding.com/sketch/ns">
    <!-- Generator: Sketch 3.2.2 (9983) - http://www.bohemiancoding.com/sketch -->
    <title>linkedin</title>
    <desc>Created with Sketch.</desc>
    <defs></defs>
    <g id="Page-1" stroke="none" stroke-width="1" fill="none" fill-rule="evenodd" sketch:type="MSPage">
        <g id="linkedin" sketch:type="MSLayerGroup" transform="translate(0.000000, -1.000000)">
            <g id="layer1" transform="translate(0.358000, 0.656000)" fill="#000000" sketch:type="MSShapeGroup">
                <path d="M199.659,0.849 L35.625,0.849 C16.026,0.849 0.138,16.737 0.138,36.336 L0.138,200.351 C0.138,219.95 16.026,235.837 35.625,235.837 L199.658,235.837 C219.257,235.837 235.145,219.949 235.145,200.351 L235.145,36.337 C235.146,16.738 219.257,0.849 199.659,0.849 L199.659,0.849 Z" id="rect1942"></path>
            </g>
            <g id="layer1_1_" transform="translate(32.448020, 41.037730)" fill="#FFFFFF" sketch:type="MSShapeGroup">
                <g id="g3019" transform="translate(83.989545, 78.994141) scale(1, -1) translate(-83.989545, -78.994141) translate(0.955144, 0.035049)">
                    <path d="M38.2009184,0.230254902 L38.2009184,106.501043 L2.88124276,106.501043 L2.88124276,0.230254902 L38.2009184,0.230254902 L38.2009184,0.230254902 Z M20.5477029,121.011177 C32.8561519,121.011177 40.5289381,129.171981 40.5289381,139.371458 C40.3007208,149.797115 32.8561519,157.73174 20.7789767,157.73174 C8.69161314,157.73174 0.79468506,149.797115 0.79468506,139.371458 C0.79468506,129.171981 8.45728293,121.011177 20.3143916,121.011177 L20.5477029,121.011177 L20.5477029,121.011177 Z" id="path28_1_"></path>
                    <path d="M57.7481332,0.230254902 L93.0739218,0.230254902 L93.0739218,59.5759088 C93.0739218,62.7536302 93.3041767,65.9282952 94.238441,68.1972229 C96.7855085,74.5465528 102.601992,81.1169681 112.35726,81.1169681 C125.140483,81.1169681 130.2499,71.3688314 130.2499,57.0848768 L130.2499,0.230254902 L165.568557,0.230254902 L165.568557,61.1662978 C165.568557,93.808496 148.146615,108.99615 124.904115,108.99615 C105.851031,108.99615 97.4823862,98.349408 92.8355162,91.0943409 L93.0739218,91.0943409 L93.0739218,106.501043 L57.7481332,106.501043 C58.2167936,96.5308018 57.7481332,0.230254902 57.7481332,0.230254902 L57.7481332,0.230254902 L57.7481332,0.230254902 Z" id="path30_1_"></path>
                </g>
            </g>
        </g>
    </g>
</svg>