<svg width="236" height="236" viewBox="0 0 236 236" xmlns="http://www.w3.org/2000/svg" xmlns:sketch="http://www.bohemiancoding.com/sketch/ns"><title>linkedin</title><desc>Created with Sketch.</desc><g sketch:type="MSLayerGroup" fill="none"><path d="M200.017.505h-164.034c-19.599 0-35.487 15.888-35.487 35.487v164.015c0 19.599 15.888 35.486 35.487 35.486h164.033c19.599 0 35.487-15.888 35.487-35.486v-164.014c.001-19.599-15.888-35.488-35.486-35.488z" fill="#000" sketch:type="MSShapeGroup"/><g fill="#fff" sketch:type="MSShapeGroup"><path d="M71.604 197.761v-106.271h-35.32v106.271h35.32zm-17.653-120.781c12.308 0 19.981-8.161 19.981-18.36-.228-10.426-7.673-18.36-19.75-18.36-12.087 0-19.984 7.935-19.984 18.36 0 10.199 7.663 18.36 19.52 18.36h.233z"/><path d="M91.151 197.761h35.326v-59.346c0-3.178.23-6.352 1.165-8.621 2.547-6.349 8.364-12.92 18.119-12.92 12.783 0 17.893 9.748 17.893 24.032v56.855h35.319v-60.936c0-32.642-17.422-47.83-40.664-47.83-19.053 0-27.422 10.647-32.069 17.902h.238v-15.407h-35.326c.469 9.97 0 106.271 0 106.271z"/></g></g></svg>