<svg version="2.1" xmlns="http://www.w3.org/2000/svg" width="512" height="512" viewBox="0 0 512 512"><path d="M161.757 406.249c0 30.791-24.96 55.751-55.75 55.751s-55.751-24.96-55.751-55.751 24.961-55.75 55.751-55.75c30.789 0 55.75 24.959 55.75 55.75zm-111.501-215.825v82.593c103.738 1.066 187.916 85.244 188.982 188.983h82.593c-1.067-149.52-122.057-270.509-271.575-271.576zm0-57.822c87.695.381 170.084 34.695 232.135 96.747 62.175 62.173 96.506 144.764 96.754 232.651h82.6c-.517-227.142-184.412-411.206-411.489-412v82.602z"/></svg>